<svg xmlns="http://www.w3.org/2000/svg" xmlns:xlink="http://www.w3.org/1999/xlink" width="44" height="44" viewBox="0 0 44 44">
    <defs>
        <path id="a" d="M0 .044h16.003v15.853H0z"/>
    </defs>
    <g fill="none" fill-rule="evenodd">
        <g transform="translate(12 12.143)">
            <mask id="b" fill="#fff">
                <use xlink:href="#a"/>
            </mask>
            <path fill="#3F3A3A" d="M8.001 1.165c-1.835 0-3.56.708-4.857 1.993A6.73 6.73 0 0 0 1.132 7.97a6.73 6.73 0 0 0 2.012 4.812 6.857 6.857 0 0 0 4.857 1.993c1.835 0 3.56-.708 4.858-1.993A6.73 6.73 0 0 0 14.87 7.97a6.728 6.728 0 0 0-2.012-4.812A6.857 6.857 0 0 0 8 1.165m0 14.732a7.987 7.987 0 0 1-5.657-2.322A7.837 7.837 0 0 1 0 7.97c0-2.117.832-4.108 2.344-5.605A7.987 7.987 0 0 1 8 .044c2.138 0 4.147.824 5.658 2.321a7.837 7.837 0 0 1 2.344 5.605 7.837 7.837 0 0 1-2.344 5.605 7.987 7.987 0 0 1-5.658 2.322" mask="url(#b)"/>
        </g>
        <path fill="#3F3A3A" d="M31.39 31.956a.567.567 0 0 1-.4-.164l-6.131-6.074a.557.557 0 0 1 0-.793.57.57 0 0 1 .8 0L31.79 31a.557.557 0 0 1 0 .793.567.567 0 0 1-.4.164"/>
    </g>
</svg>
