<svg xmlns="http://www.w3.org/2000/svg" width="30" height="30" viewBox="0 0 30 30">
    <g fill="none" fill-rule="evenodd">
        <g fill="#FFF">
            <path d="M15 3.357C8.58 3.357 3.357 8.58 3.357 15c0 6.42 5.223 11.643 11.643 11.643 6.42 0 11.643-5.223 11.643-11.643C26.643 8.58 21.42 3.357 15 3.357M15 28C7.832 28 2 22.168 2 15S7.832 2 15 2s13 5.832 13 13-5.832 13-13 13"/>
            <path d="M15.433 6.833a3.405 3.405 0 0 0-3.4 3.4c0 1.876 1.525 3.401 3.4 3.401s3.401-1.525 3.401-3.4c0-1.876-1.526-3.401-3.4-3.401m0 8.167a4.772 4.772 0 0 1-4.767-4.767 4.772 4.772 0 0 1 4.766-4.766 4.772 4.772 0 0 1 4.767 4.766A4.772 4.772 0 0 1 15.433 15M19.517 27.133a.677.677 0 0 1-.683-.67v-5.915c0-1.842-1.525-3.34-3.4-3.34-1.876 0-3.401 1.498-3.401 3.34v5.915c0 .37-.306.67-.683.67a.677.677 0 0 1-.683-.67v-5.915c0-2.582 2.138-4.681 4.766-4.681 2.629 0 4.767 2.1 4.767 4.68v5.916c0 .37-.306.67-.683.67"/>
        </g>
        <path d="M-7-7h44v44H-7z"/>
    </g>
</svg>
