<svg xmlns="http://www.w3.org/2000/svg" width="30" height="30" viewBox="0 0 30 30">
    <g fill="none" fill-rule="evenodd">
        <path d="M-7-7h44v44H-7z"/>
        <path fill="#FFF" d="M9.046 8.897c-.862 0-1.64.731-1.7 1.597l-1.018 14.67c-.028.403.101.781.364 1.064.262.283.628.44 1.03.44h15.45c.4 0 .767-.157 1.03-.44.262-.283.39-.66.363-1.064l-1.017-14.67c-.06-.866-.84-1.597-1.7-1.597H9.045zm.783-1.332V4.66A2.656 2.656 0 0 1 12.473 2h5.947a2.656 2.656 0 0 1 2.644 2.661v2.904h.783c1.558 0 2.913 1.272 3.022 2.836l1.017 14.67c.053.776-.2 1.51-.716 2.066A2.691 2.691 0 0 1 23.17 28H7.721a2.691 2.691 0 0 1-1.998-.863 2.728 2.728 0 0 1-.716-2.066l1.017-14.67c.108-1.564 1.464-2.836 3.022-2.836h.783zm1.324 0h8.587V4.66c0-.733-.592-1.328-1.32-1.328h-5.947c-.728 0-1.32.595-1.32 1.328v2.904z"/>
    </g>
</svg>
