<?xml version="1.0" ?><!DOCTYPE svg  PUBLIC '-//W3C//DTD SVG 1.1//EN'  'http://www.w3.org/Graphics/SVG/1.1/DTD/svg11.dtd'><svg enable-background="new 0 0 200 200" height="200px" id="Layer_1" version="1.1" viewBox="0 0 200 200" width="200px" xml:space="preserve" xmlns="http://www.w3.org/2000/svg" xmlns:xlink="http://www.w3.org/1999/xlink"><g><path clip-rule="evenodd" d="M124.319,104.53c0.135,0.172,0.638,0.664,0.427,0.882   c-0.104,0.103-0.486-0.534-0.576-0.602C124.073,104.74,124.258,104.556,124.319,104.53z M124.163,104.467   c0,0,0.007-0.001,0.008,0.004c-0.05-0.132-0.159-0.328-0.268-0.425C123.723,103.894,123.881,104.411,124.163,104.467z    M101.146,97.493C101.134,97.512,101.097,97.592,101.146,97.493L101.146,97.493z M101.146,97.493   c0.023-0.06-0.362,0.026-0.413,0.135C100.718,97.663,101.089,97.613,101.146,97.493z M129.208,106.693   c0.026-0.065-0.427-0.145-0.467-0.133C128.773,106.648,129.14,106.854,129.208,106.693z M104.434,150.207   c0.013,0.013,0.018,0.013,0.021,0.005c0.017-0.015,0.027-0.027,0.024-0.027C104.477,150.204,104.462,150.211,104.434,150.207z    M98.752,119.445L98.752,119.445c-0.001-0.371-0.356,0.259-0.354,0.259C98.652,119.771,98.752,119.701,98.752,119.445z    M98.752,119.444C98.752,119.445,98.752,119.445,98.752,119.444C98.752,119.482,98.757,119.669,98.752,119.444z M100.376,103.607   c-0.106,0.002-0.53-0.172-0.504-0.07c0.066,0.262,0.458,0.231,0.594,0.104C100.446,103.602,100.417,103.59,100.376,103.607   C100.406,103.607,100.223,103.612,100.376,103.607z M101.341,148.074L101.341,148.074   C101.485,148.104,101.417,148.09,101.341,148.074z M98.315,119.743L98.315,119.743c0.016-0.007,0.039-0.017,0.083-0.039   C98.391,119.701,98.339,119.729,98.315,119.743z M100.278,102.44c0.069,0.075,0.582,0.392,0.655,0.204   C100.989,102.511,100.355,102.396,100.278,102.44z M95.258,115.384c-0.026-0.063,0-0.091,0.076-0.084   c-0.087-0.229-1.616-0.45-1.666-0.201c0.008-0.041,0.395,0.445,0.341,0.535c-0.108,0.184-0.521,0.032-0.66,0.017   c-0.169-0.017-0.26,0.157-0.063,0.175c0.235,0.021,0.885-0.145,0.991,0.159c0.066,0.189,0.201-0.074,0.243-0.119   c0.156-0.167,0.333,0.022,0.432-0.109c0.164-0.21,0.517,0.103,0.652-0.003C95.906,115.515,95.379,115.438,95.258,115.384z    M93.286,115.825C93.241,115.82,93.5,115.845,93.286,115.825L93.286,115.825z M103.453,147.085   C103.4,147.028,103.492,147.136,103.453,147.085L103.453,147.085z M96.5,115.65c-0.018-0.254-0.556,0.263-0.234,0.25   C96.643,115.89,97.154,115.666,96.5,115.65z M93.271,114.953c0.05-0.004,0.085-0.026,0.109-0.067   c0.022-0.137-1.417-0.871-1.592-0.961c-0.667-0.346-1.677-0.703-2.125,0.202c0.194,0.06,0.914-0.661,1.055-0.327   c-0.029,0.055-0.079,0.098-0.135,0.125c-0.018,0.095,1.075,0.264,1.158,0.344c0.175,0.167-0.015,0.434,0.368,0.4   c0.384-0.039-0.107,0.367-0.107,0.371c0.019,0.073,1.145-0.042,1.267-0.087C93.233,114.966,93.018,115.049,93.271,114.953z    M92.359,112.667C92.374,112.741,92.353,112.645,92.359,112.667L92.359,112.667z M92.394,113.109   c0.024-0.007-0.032-0.408-0.035-0.442C92.322,112.473,91.994,113.158,92.394,113.109z M91.699,115.756   c-0.223,0.06,0.257,0.318,0.456,0.244c0.077-0.032,0.158,0.071,0.222-0.016C92.528,115.785,91.765,115.736,91.699,115.756z    M91.699,115.756C91.938,115.693,91.659,115.764,91.699,115.756L91.699,115.756z M136.559,121.809   c-0.003-0.01-0.003-0.018-0.003-0.025c-0.002,0.105-0.005,0.213-0.005,0.319C136.554,122.135,136.559,122.056,136.559,121.809z    M31.173,86.056l-2.103,3.847h4.144L31.173,86.056z M48.67,88.324c0.142-0.109,0.212-0.305,0.212-0.585v-1.137   c0-0.274-0.07-0.467-0.212-0.578c-0.14-0.109-0.4-0.166-0.782-0.166H42.94v2.631h4.947C48.27,88.49,48.53,88.434,48.67,88.324z    M64.685,88.856c0-0.965-0.262-1.698-0.786-2.196c-0.528-0.498-1.301-0.749-2.329-0.749h-3.901V91.9h2.848   c1.513,0,2.589-0.238,3.221-0.708S64.685,89.94,64.685,88.856z M32.169,164.657h4.481v-4.076h-4.481V164.657z M13.385,164.657   h4.478v-4.076h-4.478V164.657z M92.076,105.522h0.001C92.076,105.522,92.078,105.522,92.076,105.522L92.076,105.522z    M22.777,164.657h4.48v-4.076h-4.48V164.657z M135.238,127.242c0,0.004,0,0.008,0,0.012   C135.246,127.205,135.278,126.952,135.238,127.242z M92.224,103.635C92.376,103.555,92.2,103.645,92.224,103.635L92.224,103.635z    M103.214,146.873c-0.078,0.025-0.159,0.267-0.037,0.218c0.069-0.028,0.221-0.162,0.299-0.147v-0.003   C103.403,146.854,103.318,146.828,103.214,146.873z M130.824,164.657h4.479v-4.076h-4.479V164.657z M112.039,164.657h4.477v-4.076   h-4.477V164.657z M121.431,164.657h4.479v-4.076h-4.479V164.657z M136.556,121.783c0-0.026,0.003-0.052,0.003-0.077   c-0.007-0.106-0.02-0.213-0.027-0.321C136.541,121.516,136.548,121.649,136.556,121.783z M127.469,105.537   c-0.008-0.01-0.015-0.017-0.022-0.025c0.002,0.016,0.015,0.026,0.03,0.038C127.477,105.543,127.474,105.54,127.469,105.537z    M55.662,164.657h4.48v-4.076h-4.48V164.657z M65.056,164.657h4.48v-4.076h-4.48V164.657z M46.269,164.657h4.48v-4.076h-4.48   V164.657z M88.546,164.657h4.479v-4.076h-4.479V164.657z M79.152,164.657h4.479v-4.076h-4.479V164.657z M97.938,164.657h4.481   v-4.076h-4.481V164.657z M86.213,124.91c-0.095-0.053,0.069,0.416,0.03,0.445c0.142-0.067,0.069-0.177,0.158-0.275   C86.406,125.085,86.271,124.94,86.213,124.91z M109.72,96.616c0.14-0.058,0.399,0.238,0.584,0.104   c-0.123-0.14-0.354-0.124-0.39-0.336c-0.047-0.281,0.078-0.35-0.286-0.485c0.021-0.016-0.366-0.183-0.469-0.206   c-0.283-0.056-0.045-0.203-0.154-0.355c-0.064-0.092-0.373-0.011-0.443-0.005c-0.406,0.029-0.822-0.119-1.238-0.097   c-0.542,0.032-1.068,0.184-1.616,0.142c-0.825-0.061-2.479-0.137-3.156,0.431c0.038,0.003,0.157-0.005,0.18,0.048   c-0.142,0.106-0.25,0.02-0.396,0.161c0.074-0.071,0.093-0.001,0.064,0.02c0.469,0.199,2.502-0.689,2.521-0.431   c0.007,0.112-1.081,0.142-1.015,0.408c0.036,0.143,0.755,0.019,0.883,0.046c0.533,0.107,0.06,0.558,0.169,0.699   c0.018,0.021,0.554-0.048,0.563,0.106c-0.069-0.128-1.194,0.415-0.348,0.273c0.066-0.009,0.187-0.157,0.241-0.115   c0.175,0.145-0.058,0.27-0.182,0.265c-0.927-0.046-0.037,1.884,0.782,1.75c0.429-0.067,0.699,0.53,0.961-0.103   c0.093-0.223,0.125-0.479,0.374-0.591c0.182-0.083-0.018-0.357,0.043-0.377c0.273-0.102,0.51-0.154,0.796-0.21   c0.342-0.064,0.402-0.323,0.678-0.461c0.11-0.056,1.463-0.196,1.344-0.443c-0.104-0.214-0.878,0.165-0.87-0.114   C109.695,96.916,109.496,96.709,109.72,96.616z M100.209,96.625c0.217,0.025,0.416-0.064,0.617-0.127c-0.201,0.063,0.021-0.006,0,0   C100.933,96.465,100.384,96.471,100.209,96.625z M101.253,96.069C101.134,96.105,101.229,96.071,101.253,96.069   c-0.142,0.002-0.371-0.003-0.459,0.148C101.301,96.413,100.944,96.153,101.253,96.069z M110.767,97.686   c0.04,0.061,0.095,0.074,0.159,0.037c-0.05-0.01,0.174-0.011,0,0c0.052,0.001,0.103,0.001,0.151,0.004   c0.028,0.058,0.022,0.097-0.015,0.116c0.194-0.061,0.326,0.26,0.551,0.238c0.199-0.019,1.232,0.17,1.226-0.308   C112.831,97.281,110.764,97.637,110.767,97.686z M101.773,96.081c-0.024-0.124-0.601,0.197-0.411,0.242   c0.29,0.071,0.862,0.067,1.109-0.103C102.292,96.121,101.821,96.362,101.773,96.081z M104.022,124.486   c0.041-0.042,0.068-0.092,0.078-0.151c-0.165-0.005-0.312,0.301-0.12,0.251c-0.002,0,0.464-0.072,0.318-0.121   C104.321,124.472,104.022,124.475,104.022,124.486z M148.695,87.876v71.375c0,7.633-6.246,13.878-13.88,13.878H13.878   C6.245,173.129,0,166.884,0,159.251V87.876c0-7.635,6.245-13.878,13.878-13.878h120.937   C142.449,73.998,148.695,80.241,148.695,87.876z M135.569,124.248c0.244,0.313,0.259-0.579,0.252-0.464   c0.025-0.378,0.087-0.578-0.02-0.929c0.024,0.077-0.046,0.072-0.041,0.039C135.527,123.114,135.413,124.046,135.569,124.248z    M135.606,127.912c-0.121,0.5-0.321,2.098-0.264,2.11c0.04,0.01,0.212-1.351,0.279-1.966c0.008-0.038,0.021-0.117,0.027-0.276   c0,0.035-0.011,0.137-0.027,0.276C135.603,128.128,135.589,128.029,135.606,127.912z M132.132,109.678   c0.058,0.221,0.291,0.474,0.408,0.665c0.352,0.563,0.71,1.121,1.036,1.698c0.583,1.031,1.132,2.163,1.53,3.278   c0.003,0.006,0.005,0.015,0.008,0.02c0-0.002,0-0.004,0-0.004c0.004,0.012,0.004,0.01,0.004,0.017   c0.093,0.242,0.234,0.462,0.349,0.693c-0.694-2.324-1.778-4.367-3.139-6.37C132.301,109.631,132.075,109.479,132.132,109.678z    M135.238,127.242c0,0.005,0,0.008-0.002,0.015c-0.003,0.052,0.014,0.089,0.063,0.103c0.086-0.016-0.057-2.317-0.063-2.566   C135.071,125.622,135.338,126.435,135.238,127.242z M135.132,127.354c-0.195,0.07-0.3,0.182-0.27,0.451   c0.053-0.05,0.27-0.333,0.267-0.438C135.129,127.379,135.137,127.396,135.132,127.354z M125.257,100.84   c0.286,0.216,0.572,0.433,0.85,0.662c-0.209-0.172-0.417-0.341-0.631-0.506C125.404,100.943,125.329,100.895,125.257,100.84z    M94.964,97.997c0.162-0.064,0.326-0.132,0.49-0.187c-0.098,0.145-0.299,0.262-0.451,0.334c0.304-0.109,0.655-0.172,0.903-0.402   c-0.109-0.037-0.206,0.113-0.294-0.022c0.183-0.117,0.375-0.215,0.578-0.302C95.777,97.604,95.368,97.796,94.964,97.997z    M95.586,104.795c0.508-0.313-0.721-0.18-0.946,0c0.024-0.02,0.13-0.106-0.001,0.002c0,0,0,0,0.001-0.002   c-0.001,0.002-0.001,0.002-0.001,0.002C94.45,104.955,95.42,104.897,95.586,104.795z M93.236,105.42   c-0.202,0.21,1.491-0.008,1.439-0.352C94.651,104.919,93.324,105.326,93.236,105.42z M93.584,99.184   c0.092,0.022,0.768-0.206,0.686-0.365C94.237,98.752,93.638,99.118,93.584,99.184z M92.908,99.854   c0.02-0.001,0.067-0.022,0.127-0.055c0.218-0.064,0.654-0.156,0.644-0.218c-0.019-0.114-0.429,0.111-0.644,0.218   C92.953,99.825,92.9,99.841,92.908,99.854z M92.275,102.321c0.17,0.013,0.747-0.912,0.786-1.029c0.014-0.064-0.35,0.096-0.44,0.018   c-0.227-0.199-0.323,0.422-0.213,0.34C92.818,101.342,92.412,102.249,92.275,102.321z M92.224,103.635   c0.18-0.093,0.361,0.067,0.562-0.048c0.194-0.112,0.365-0.138,0.456,0.115c0.13,0.351,1.213-0.347,0.863-0.519   c-0.022-0.011-0.206,0.037-0.157-0.075c0.122-0.292-0.113-0.14-0.246-0.231C93.161,103.024,92.693,103.395,92.224,103.635z    M92.076,105.521c0,0.002,0,0,0,0.002V105.521v0.002c0.016,0.012,0.027,0.022,0.001,0c0.196,0.164,0.606-0.474,0.636-0.603   c0.093-0.386,0.442-0.559,0.739-0.755c0.889-0.578,0.052,0.593,0.036,0.57c0.045,0.077,0.222-0.095,0.27-0.107   c0.169-0.048-0.029,0.296-0.001,0.334c0.114,0.138,0.659-0.662,0.686-0.762c0.191,0.281,0.482,0.216,0.368-0.163   c-0.119-0.396-0.973-0.177-1.245-0.132c-0.495,0.08-0.732,0.225-0.972,0.655C92.513,104.706,91.871,105.335,92.076,105.521z    M55.468,93.68h5.522c0.952,0,1.735-0.058,2.347-0.175c0.612-0.116,1.125-0.302,1.537-0.559c0.662-0.406,1.174-0.962,1.536-1.669   c0.366-0.707,0.548-1.502,0.548-2.384c0-1.492-0.466-2.644-1.399-3.453c-0.936-0.813-2.27-1.218-4.006-1.218h-6.084V93.68z    M66.948,135.295v-6.499h-9.601c-0.546,0-0.991,0.443-0.991,0.989v4.517c0,0.546,0.445,0.993,0.991,0.993H66.948z M57.347,137.276   H31.194H12.176c0.485,3.348,3.378,5.947,6.858,5.947h40.975c3.479,0,6.372-2.6,6.859-5.947H57.347z M66.948,126.812v-6.497h-9.601   c-0.546,0-0.991,0.443-0.991,0.989v4.518c0,0.546,0.445,0.99,0.991,0.99H66.948z M66.948,118.331v-6.497H33.985   c0.111,0.312,0.182,0.641,0.182,0.99v4.516c0,0.765-0.297,1.455-0.771,1.982c0.474,0.528,0.771,1.219,0.771,1.981v4.518   c0,0.765-0.297,1.455-0.771,1.981c0.474,0.527,0.771,1.221,0.771,1.982v4.517c0,0.351-0.071,0.68-0.182,0.993h20.572   c-0.113-0.313-0.185-0.643-0.185-0.993v-4.517c0-0.762,0.302-1.455,0.776-1.982c-0.474-0.526-0.776-1.217-0.776-1.981v-4.518   c0-1.638,1.335-2.973,2.975-2.973H66.948z M66.868,109.852c-0.487-3.351-3.38-5.95-6.859-5.95H19.034c-3.48,0-6.374,2.6-6.858,5.95   h19.018H66.868z M40.772,93.68h2.168V90.11h2.085l3.812,3.569h3.158l-4.366-3.569h1.235c0.752,0,1.296-0.148,1.63-0.44   c0.339-0.292,0.508-0.757,0.508-1.395v-2.22c0-0.644-0.169-1.112-0.508-1.401c-0.334-0.289-0.878-0.434-1.63-0.434h-8.092V93.68z    M24.838,93.68h2.192l1.101-2.067h5.995l1.135,2.067h2.471l-5.423-9.458h-2.12L24.838,93.68z M12.094,91.443   c0,0.864,0.162,1.454,0.483,1.767c0.321,0.313,0.943,0.469,1.862,0.469h5.647c0.911,0,1.531-0.156,1.855-0.469   c0.326-0.313,0.488-0.903,0.488-1.767v-1.118l-2.202-0.458V91.9h-5.932v-5.988h5.932v1.791l2.202-0.35v-0.895   c0-0.857-0.163-1.445-0.488-1.762c-0.325-0.316-0.945-0.474-1.855-0.474h-5.647c-0.919,0-1.541,0.158-1.862,0.474   s-0.483,0.904-0.483,1.762V91.443z M12.094,118.331h19.1c0.546,0,0.991-0.445,0.991-0.991v-4.516c0-0.546-0.445-0.99-0.991-0.99   h-19.1V118.331z M12.094,126.812h19.1c0.546,0,0.991-0.444,0.991-0.99v-4.518c0-0.546-0.445-0.989-0.991-0.989h-19.1V126.812z    M12.094,135.295h19.1c0.546,0,0.991-0.447,0.991-0.993v-4.517c0-0.546-0.445-0.989-0.991-0.989h-19.1V135.295z M19.181,160.995   c0-0.572-0.098-0.964-0.299-1.171c-0.198-0.207-0.578-0.312-1.137-0.312h-4.241c-0.554,0-0.932,0.104-1.131,0.312   c-0.201,0.207-0.3,0.599-0.3,1.171v3.306c0,0.575,0.1,0.964,0.3,1.173c0.199,0.208,0.577,0.31,1.131,0.31h4.241   c0.559,0,0.939-0.102,1.137-0.31c0.201-0.209,0.299-0.598,0.299-1.173V160.995z M28.574,160.995c0-0.572-0.098-0.964-0.299-1.171   c-0.199-0.207-0.579-0.312-1.137-0.312h-4.241c-0.554,0-0.93,0.104-1.132,0.312c-0.199,0.207-0.299,0.599-0.299,1.171v3.306   c0,0.575,0.1,0.964,0.299,1.173c0.202,0.208,0.578,0.31,1.132,0.31h4.241c0.559,0,0.938-0.102,1.137-0.31   c0.201-0.209,0.299-0.598,0.299-1.173V160.995z M37.967,160.995c0-0.572-0.1-0.964-0.3-1.171c-0.197-0.207-0.578-0.312-1.136-0.312   h-4.24c-0.554,0-0.935,0.104-1.132,0.312c-0.199,0.207-0.299,0.599-0.299,1.171v3.306c0,0.575,0.1,0.964,0.299,1.173   c0.197,0.208,0.578,0.31,1.132,0.31h4.24c0.558,0,0.938-0.102,1.136-0.31c0.201-0.209,0.3-0.598,0.3-1.173V160.995z    M52.067,160.995c0-0.572-0.103-0.964-0.3-1.171c-0.201-0.207-0.579-0.312-1.136-0.312h-4.244c-0.554,0-0.93,0.104-1.129,0.312   c-0.201,0.207-0.302,0.599-0.302,1.171v3.306c0,0.575,0.101,0.964,0.302,1.173c0.199,0.208,0.575,0.31,1.129,0.31h4.244   c0.557,0,0.935-0.102,1.136-0.31c0.197-0.209,0.3-0.598,0.3-1.173V160.995z M61.459,160.995c0-0.572-0.1-0.964-0.299-1.171   c-0.201-0.207-0.578-0.312-1.135-0.312h-4.246c-0.552,0-0.93,0.104-1.129,0.312c-0.199,0.207-0.301,0.599-0.301,1.171v3.306   c0,0.575,0.102,0.964,0.301,1.173c0.199,0.208,0.577,0.31,1.129,0.31h4.246c0.557,0,0.935-0.102,1.135-0.31   c0.199-0.209,0.299-0.598,0.299-1.173V160.995z M70.853,160.995c0-0.572-0.1-0.964-0.302-1.171   c-0.198-0.207-0.579-0.312-1.133-0.312h-4.245c-0.553,0-0.93,0.104-1.131,0.312s-0.299,0.599-0.299,1.171v3.306   c0,0.575,0.098,0.964,0.299,1.173c0.201,0.208,0.578,0.31,1.131,0.31h4.245c0.554,0,0.935-0.102,1.133-0.31   c0.202-0.209,0.302-0.598,0.302-1.173V160.995z M84.949,160.995c0-0.572-0.098-0.964-0.299-1.171   c-0.199-0.207-0.58-0.312-1.137-0.312h-4.241c-0.554,0-0.93,0.104-1.131,0.312c-0.199,0.207-0.298,0.599-0.298,1.171v3.306   c0,0.575,0.1,0.964,0.298,1.173c0.201,0.208,0.577,0.31,1.131,0.31h4.241c0.558,0,0.938-0.102,1.137-0.31   c0.201-0.209,0.299-0.598,0.299-1.173V160.995z M94.343,160.995c0-0.572-0.098-0.964-0.299-1.171   c-0.199-0.207-0.578-0.312-1.137-0.312h-4.241c-0.554,0-0.933,0.104-1.131,0.312c-0.201,0.207-0.3,0.599-0.3,1.171v3.306   c0,0.575,0.1,0.964,0.3,1.173c0.198,0.208,0.577,0.31,1.131,0.31h4.241c0.559,0,0.938-0.102,1.137-0.31   c0.201-0.209,0.299-0.598,0.299-1.173V160.995z M103.736,160.995c0-0.572-0.1-0.964-0.299-1.171   c-0.197-0.207-0.58-0.312-1.138-0.312h-4.244c-0.554,0-0.928,0.104-1.127,0.312c-0.201,0.207-0.3,0.599-0.3,1.171v3.306   c0,0.575,0.1,0.964,0.3,1.173c0.199,0.208,0.574,0.31,1.127,0.31h4.244c0.558,0,0.94-0.102,1.138-0.31   c0.199-0.209,0.299-0.598,0.299-1.173V160.995z M117.834,160.995c0-0.572-0.1-0.964-0.299-1.171s-0.578-0.312-1.139-0.312h-4.24   c-0.555,0-0.93,0.104-1.128,0.312c-0.202,0.207-0.304,0.599-0.304,1.171v3.306c0,0.575,0.102,0.964,0.304,1.173   c0.198,0.208,0.573,0.31,1.128,0.31h4.24c0.561,0,0.939-0.102,1.139-0.31c0.199-0.209,0.299-0.598,0.299-1.173V160.995z    M127.229,160.995c0-0.572-0.102-0.964-0.301-1.171c-0.2-0.207-0.578-0.312-1.137-0.312h-4.242c-0.556,0-0.93,0.104-1.129,0.312   c-0.201,0.207-0.303,0.599-0.303,1.171v3.306c0,0.575,0.102,0.964,0.303,1.173c0.199,0.208,0.573,0.31,1.129,0.31h4.242   c0.559,0,0.937-0.102,1.137-0.31c0.199-0.209,0.301-0.598,0.301-1.173V160.995z M136.62,160.995c0-0.572-0.1-0.964-0.299-1.171   s-0.58-0.312-1.136-0.312h-4.244c-0.554,0-0.929,0.104-1.129,0.312c-0.201,0.207-0.301,0.599-0.301,1.171v3.306   c0,0.575,0.1,0.964,0.301,1.173c0.2,0.208,0.575,0.31,1.129,0.31h4.244c0.556,0,0.937-0.102,1.136-0.31   c0.199-0.209,0.299-0.598,0.299-1.173V160.995z M136.634,123.02c-0.011-0.408-0.05-0.808-0.075-1.211c0-0.034,0-0.062,0-0.103   c-0.016-0.204-0.022-0.299-0.03-0.336c0-0.005,0-0.008,0-0.013v-0.005c-0.02-0.074,0.005,0.665,0.022,0.75   c-0.022,1.126-0.147,2.247-0.246,3.365c-0.115,1.348-0.159,2.708-0.403,4.043c-0.228,1.249-0.859,2.194-1.325,3.341   c-0.186,0.468-0.274,0.975-0.443,1.447c-0.205,0.576-0.65,0.954-0.878,1.499c-0.431,1.015-1.112,1.979-1.858,2.783   c-0.321,0.349-0.694,0.803-1.218,0.795c-0.254-0.008-1.006,0.65-0.867,0c0.103-0.477,0.404-0.84,0.501-1.328   c0.103-0.543,0.064-1.089,0.17-1.611c0.241-1.146,0.623-2.096,0.545-3.291c-0.076-1.179,0.164-2.05,0.586-3.163   c0.197-0.519,0.568-0.788,0.441-1.405c-0.115-0.581,0.089-1.031-0.065-1.597c-0.145-0.521-0.1-1.041-0.359-1.532   c-0.23-0.431-0.553-0.845-0.682-1.325c-0.1-0.386,0.119-0.877,0.09-1.3c-0.038-0.597,0.248-0.949-0.21-1.483   c-0.365-0.426-0.647,0.167-1.043-0.027c-0.372-0.181-0.205-0.874-0.72-0.991c-0.469-0.106-1,0.27-1.358,0.506   c-0.231,0.152-0.478,0.286-0.715,0.426c-0.165,0.093-0.744-0.167-0.975-0.148c-0.423,0.034-1.081,0.617-1.449,0.44   c-0.498-0.239-0.854-0.615-1.288-0.941c-0.373-0.272-0.752-0.35-0.974-0.771c-0.112-0.207-0.145-0.474-0.279-0.665   c-0.162-0.222-0.488-0.421-0.692-0.61c-0.149-0.142-0.364-0.241-0.307-0.501c-0.266-0.049-0.381,0.076-0.558-0.231   c-0.143-0.251,0.012-0.527-0.112-0.754c-0.145-0.255-0.403-0.349-0.184-0.665c0.184-0.265,0.161-0.882,0.156-1.193   c-0.003-0.344-0.296-0.541-0.323-0.843c-0.035-0.363-0.019-0.389-0.287-0.66c-0.342-0.349,0.098-1.234,0.282-1.597   c0.124-0.248,0.081-0.533,0.116-0.8c0.027-0.213,0.252-0.244,0.295-0.466c0.127-0.612,0.751-0.587,0.959-1.215   c0.109-0.336-0.105-0.386-0.19-0.689c-0.072-0.255,0.022-0.716,0.18-0.918c0.162-0.214,0.399-0.224,0.429-0.538   c0.042-0.438-0.167-0.669,0.321-0.393c0.473,0.264,1.009,0.027,1.351-0.25c0.246-0.203,0.216-0.248,0.524-0.348   c0.147-0.05,0.94-0.104,0.977-0.138c0.23-0.219,0.449-0.022,0.696-0.109c0.341-0.124,0.158-0.119,0.503-0.013   c0.321,0.1-0.023-0.052,0.209,0.294c0.107,0.095,0.212,0.188,0.318,0.282c0.15,0.196-0.054,0.413,0.068,0.574   c0.355,0.462,1.028,0.324,1.479,0.523c0.258,0.112,0.33,0.404,0.583,0.508c0.299,0.122,0.558,0.234,0.852,0.374   c0.374,0.178-0.581-1.457,0.106-1.113c0.307,0.151,0.534,0.331,0.872,0.456c0.18,0.067,0.364,0.139,0.544,0.212   c0.258,0.106,0.037-0.17,0.19-0.237c0.016-0.003,0.511,0.291,0.397-0.007c-0.155-0.408-0.447-0.822-0.683-1.19   c-0.205-0.335-0.467-0.634-0.671-0.972c-0.147-0.237-0.146,0.23-0.129,0.219c-0.1,0.064-0.376-0.314-0.437-0.214   c-0.03,0.044,0.122,0.156,0.027,0.214c-0.201,0.119-1.025-0.739-1.128-0.893c-0.122-0.19-0.387-0.296-0.479-0.489   c-0.133-0.265,0.269-0.08,0.182-0.267c-0.122-0.257,0.015-0.173-0.017-0.469c-0.03-0.305,0.709,0.324,0.797,0.206   c0.162-0.222-0.919-0.958-1.032-1.044c-0.166-0.124-0.674-0.685-0.628-0.231c-0.002-0.064-0.603-0.271-0.465-0.433   c0.062-0.07,0.259,0.278,0.376,0.14c0.057-0.067-0.438-0.598-0.518-0.556c-0.072,0.042,0.057,0.238,0.063,0.275   c0.04,0.217-0.365-0.086-0.405-0.044c-0.08,0.069,0.53,0.81,0.595,0.899c0.172,0.241,0.349,0.498,0.563,0.71   c0.085,0.084,0.445,0.247,0.485,0.341c-0.045-0.098-0.194,0.26-0.145,0.215c-0.076,0.069-0.299-0.228-0.361-0.055   c-0.047,0.121-0.069,0.318,0.021,0.4c0.152,0.143,0.567,0.386,0.667,0.554c0.127,0.213,0.16,0.443,0.308,0.67   c-0.271-0.043-0.546-0.29-0.803-0.554c-0.005-0.015-0.015-0.029-0.024-0.042c-0.001,0.007,0,0.012,0.002,0.017   c-0.204-0.213-0.396-0.431-0.57-0.557c-0.364-0.272-0.576-0.743-0.984-0.938c-0.491-0.236-0.972-0.443-1.419-0.755   c-0.085-0.063-0.671-0.401-0.728-0.348c-0.205,0.213,0.643,0.699,0.772,0.781c0.203,0.125,0.41,0.249,0.592,0.406   c0.069,0.06,0.366,0.082,0.382,0.107c0.248,0.376,0.786,0.318,1.036,0.704c-0.005-0.004-0.008-0.004-0.01,0   c-0.406-0.045-0.501-0.231-0.09,0.208c0.087,0.097,0.281,0.498,0.112,0.604c-0.118,0.074,0.181,0.376,0.185,0.459   c-0.104-0.003-1.055-0.411-0.78-0.504c0.189-0.064,0.328,0.142,0.483-0.103c0.142-0.23-0.347-0.569-0.481-0.662   c-0.503-0.341-1.088-0.55-1.611-0.854c-0.172-0.102-0.864-0.81-1.094-0.646c-0.015,0.01-0.199,0.417-0.206,0.444   c-0.033,0.137-0.521-0.046-0.596-0.065c-0.446-0.111,0.119,0.658,0.074,0.738c-0.162,0.273-0.702,0.691-0.148,1.038   c0.264,0.167-0.127,0.535-0.108,0.681c0.03,0.248-0.148,0.229-0.32,0.246c-0.236,0.022-0.581,0.297-0.771,0.278   c-0.154-0.02-0.275-0.259-0.397-0.334c-0.158-0.097-0.483-0.004-0.673,0.008c-0.013,0.001-0.616-0.719-0.621-0.742   c-0.099-0.522-0.148-0.962-0.525-1.385c-0.657-0.73,1.91-0.156,1.938-0.438c0.056-0.53-0.59-0.921-0.929-1.174   c-0.116-0.084-1.133-0.41-1.105-0.525c0.052-0.261,0.591,0.07,0.705-0.099c0.084-0.127-0.268-0.203-0.215-0.294   c0.064-0.107,0.563,0.244,0.578-0.247c0.007-0.366-0.199,0.018,0.062-0.366c0.085-0.129-0.137-0.466-0.055-0.511   c-0.05-0.302,0.352-0.157,0.395-0.288c0.062-0.199-1.276-0.785-1-1.018c0.148-0.127,1.259,1.2,1.42,0.904   c0.189-0.341,0.457,0.175,0.619-0.055c0.249-0.354,0.208-0.029,0.503-0.146c-0.227-0.348-0.506-0.467-0.808-0.772   c-0.057-0.058-0.541-0.578-0.525-0.612c0.065-0.151,0.162,0.03,0.219-0.149c0.075-0.231-0.416-0.464-0.61-0.411   c0.1,0.104,0.277,0.206,0.414,0.253c-0.083,0.113-0.612,0.187-0.797,0.066c-0.197-0.125-1.963-1.299-2.036-1.165   c-0.089,0.161,1.513,1.186,1.719,1.234c0.274,0.064,1.41,1.057,1.166,1.303c-0.116,0.119-1.815-1.128-1.848-0.871   c-0.067,0.538-0.616,0.027-0.924-0.143c-0.437-0.241-0.888-0.395-0.827-0.958c0.036-0.339-0.748-0.816-0.978-0.993   c-0.45-0.339-0.203-0.504,0.3-0.379c0.585,0.145,1.197,0.225,1.763,0.44c0.096,0.036,0.04,0.158,0.135,0.193   c0.362,0.137,0.713,0.312,1.092,0.405c-0.096-0.083-0.531-0.257-0.543-0.37c0.153,0.22,1.056,0.443,1.315,0.563   c0.633,0.295,1.253,0.613,1.858,0.956c0.615,0.345,1.215,0.711,1.801,1.101c-0.576-0.381-1.166-0.744-1.769-1.083   c-0.011-0.006-0.022-0.013-0.032-0.018c-4.378-2.469-9.457-3.828-14.85-3.689c-3.876,0.103-7.554,0.968-10.897,2.446   c0.198-0.085,0.405-0.162,0.604-0.238c0.345,0.239-0.183,0.206-0.137,0.371c0.027,0.106,0.582,0.048,0.601-0.085   c0.011-0.102-0.154-0.072-0.055-0.17c0.175-0.185,0.344-0.172,0.561-0.268c0.498-0.225,0.859-0.622,1.457-0.636   c-0.034,0.06-0.289,0.132-0.257,0.209c0.055,0.128,0.222-0.002,0.307,0.006c-0.148,0.279-1.136,0.8-1.441,0.726   c-0.153-0.041-0.432,0.228-0.185,0.247c0.127,0.01,0.689-0.222,0.728-0.199c0.082,0.048-0.111,0.097-0.031,0.158   c0.248,0.186,1.06-0.771,1.468-0.715c-0.088,0.186-0.482,0.502-0.66,0.599c0.053-0.01,0.302-0.161,0.333-0.077   c0.058,0.154-0.432,0.148-0.342,0.315c0.037,0.077,0.532-0.196,0.583-0.217c0.344-0.137,0.458-0.175,0.333-0.423   c-0.05-0.103,1.025-0.638,1.078-0.485c0.009,0.016-0.353,0.239-0.377,0.309c0.117-0.071,0.901-0.556,0.984-0.315   c0.025,0.074-0.127,0.141-0.165,0.166c0.072,0.004,0.613-0.161,0.666-0.068c-0.023,0.158,0.047,0.233,0.221,0.227   c0.041,0.029,0.342,0.135,0.326,0.241c-0.02,0.119-0.394,0.181-0.24,0.316c0.181,0.157,0.521,0.166,0.722,0.31   c-0.093,0.119-0.62,0.456-0.774,0.379c-0.132-0.067-0.304-0.498-0.471-0.152c-0.12,0.252,0.304,0.262,0.076,0.591   c-0.238,0.349-0.485-0.157-0.635,0.006c-0.064,0.069,0.202,0.201,0.155,0.286c-0.082,0.152-0.876-0.133-0.904-0.243   c-0.128-0.501-0.832-0.103-0.888-0.307c-0.053-0.185,1.704-0.3,1.687-0.776c-0.05-0.943-1.221-0.092-1.524,0.149   c-0.109,0.086-0.797,0.354-0.827,0.249c-0.045-0.158-0.222,0.085-0.071,0.337c0.051,0.09,0.035,0.483-0.153,0.276   c-0.175-0.196-0.319-0.025-0.504,0.016c-0.07,0.013-0.34-0.032-0.333-0.035c0.024-0.083,0.391-0.125,0.297-0.257   c-0.117-0.156-2.029,0.78-2.255,0.902c-0.289,0.158-0.568,0.342-0.832,0.537c0.13-0.096-0.154,0.522-0.188,0.572   c0.167,0.066,0.219-0.096,0.426,0.031c0.254,0.159,0.254,0.509,0.626,0.511c0.511,0.008,0.182,0.246,0,0.509   c-0.061,0.087-0.206,0.895,0.021,0.757c0.406-0.246,0.784-0.535,0.85-1.065c0.015-0.107,1.002-0.424,1.152-0.614   c0.048-0.058,0.262-0.347,0.162-0.435c-0.278-0.243,0.173-0.318,0.313-0.431c0.5-0.406,0.389-0.758,1.097-0.689   c0.13,0.013,0.352-0.112,0.448,0.043c0.018,0.027,0.391,0.387,0.391,0.3c-0.002,0.309-0.438,0.286-0.097,0.584   c0.426,0.37,0.789-0.511,1.131-0.482c0.175,0.016,0.292,0.943,0.329,1.118c0.067,0.36,0.774,0.321,0.799,0.479   c0.011,0.09-0.151,0.036-0.174,0.097c0.212,0.035,0.892,0.507,0.387,0.713c-0.486,0.199-1.216,0.613-1.731,0.62   c-0.678,0.009-1.312-0.116-1.91,0.234c-0.52,0.309-1.02,0.533-1.486,0.935c0.231-0.016,0.447-0.265,0.635-0.382   c0.286-0.171,0.599-0.276,0.917-0.357c0.121-0.03,0.671-0.208,0.702,0.067c0.034,0.321-0.607,0.179-0.696,0.28   c0.109,0.063,0.283,0.038,0.351,0.077c0.013,0.006-0.111,0.389-0.06,0.479c0.175,0.309,0.598,0.212,0.88,0.25   c0.075,0.012,0.345-0.382,0.439-0.441c0.144-0.092,0.172,0.267,0.054,0.342c-0.591,0.386-1.362,0.415-1.905,0.868   c-0.189,0.155-0.35-0.114-0.187-0.258c0.28-0.244,0.561-0.252,0.887-0.372c0.06,0.008-0.464-0.057-0.252-0.132   c-0.673,0.241-1.512,0.431-2.111,0.832c-0.117,0.085-0.22,0.189-0.307,0.305c-0.077,0.111,0,0.371-0.051,0.418   c-0.257,0.231-0.763,0.109-1.062,0.286c0.034,0.042,0.203,0.022,0.243,0.024c-0.026,0.11-0.467,0.158-0.577,0.285   c-0.027,0.031-0.647,0.615-0.609,0.43c-0.188,0.905-0.565,0.183-0.168-0.111c-0.175,0.111-0.203,0.199-0.291,0.378   c-0.098,0.194-0.161-0.01-0.233,0.067c0.071,0.055,0.128,0.118,0.178,0.195c-0.042,0.081-0.077,0.106-0.104,0.071   c0.001-0.035-0.008-0.045-0.026-0.022c0.17,0.163-0.112,0.168-0.069,0.299c0.048,0.135,0.215,0.07,0.106,0.263   c-0.034,0.06-0.309,0.154-0.276,0.198c-0.032-0.044,0.374,0.08,0.149,0.159c-0.072,0.023-0.357,0.23-0.354,0.23   c0.027,0.012,0.096,0.01,0.076,0.062c-0.034,0.083-0.671,0.349-0.773,0.414c-0.334,0.221-0.678,0.456-0.993,0.7   c-0.493,0.386-0.589,0.797-0.599,1.392c-0.003,0.35,0.189,1.684-0.366,1.809c-0.554,0.13-0.271-1.833-0.416-2.098   c-0.085-0.157-0.172-0.092-0.291-0.031c-0.309,0.159-0.203-0.063-0.426-0.192c-0.135-0.079-1.193-0.04-1.248,0.039   c0.011-0.015,0.061,0.409,0.087,0.447c-0.008-0.016-0.453,0.092-0.529,0.027c-0.013-0.011-0.091-0.329-0.189-0.223   c-0.166,0.167-0.246-0.035-0.415-0.02c-0.335,0.03-0.435,0.233-0.674,0.408c-0.403,0.294-0.729,0.414-0.898,0.941   c-0.228,0.729-0.745,1.403-0.835,2.2c-0.085,0.763-0.034,2.053,0.945,1.712c0.331-0.113,0.347,0.02,0.583-0.207   c0.299-0.285,0.291-0.855,0.605-1.071c0.151-0.105,0.97-0.347,1.075-0.1c0.091,0.204-0.402,0.697-0.447,0.937   c-0.024,0.127-0.064,0.249-0.124,0.365c-0.06,0.13-0.121-0.039-0.161,0.018c-0.229,0.305-0.098,0.808-0.373,1.146   c-0.267,0.323,0.349,0.204,0.507,0.22c0.26,0.026,0.48-0.105,0.747-0.061c0.344,0.061,0.138,0.143,0.349,0.289   c0.458,0.318-0.198,1.442-0.204,2.021c-0.003,0.784,0.749,1.4,1.399,0.916c0.243-0.185,0.685-0.087,0.848,0.154   c0.325,0.474,0.416,0.036,0.707-0.199c0.206-0.164,0.159,0.031,0.207-0.187c0.045-0.202,0.039-0.418,0.215-0.563   c0.228-0.187,0.699-0.241,0.998-0.369c0.14-0.06,0.563-0.612,0.728-0.354c0.162,0.257-0.514,0.242-0.257,0.665   c0.18,0.292-0.371,0.556-0.047,0.902c0.395,0.42,0.154-0.895,0.135-0.825c0.093-0.294,0.844-0.431,1.084-0.366   c0.538,0.138,0.138,0.521,0.824,0.429c0.106-0.013,0.377-0.098,0.491,0.016c0.143,0.148,0.344,0.256,0.556,0.181   c0.469-0.166,0.697-0.326,1.226-0.311c-0.361,0.116-0.161,0.455,0.109,0.315c-0.006,0.005-0.011,0.008,0,0   c-0.053,0.08,0.532,0.208,0.535,0.439c0.006,0.299,0.639,0.428,0.902,0.652c0.124,0.104,0.138,0.405,0.275,0.446   c0.225,0.066,0.381,0.241,0.54,0.397c0.234,0.22,1.068-0.015,1.389,0.05c0.508,0.1,0.799,0.34,1.192,0.646   c0.406,0.325,0.439,0.694,0.639,1.155c0.129,0.279,0.54,0.151,0.365,0.593c-0.053,0.124-0.284,0.247-0.369,0.355   c-0.278,0.347,0.096,0.105-0.005,0.372c0.054,0.013,1.154-0.426,1.166-0.027c0.019,0.709-0.739,0.433-0.971,0.747   c0.243,0.156,0.575-0.267,0.497,0.234c0.113-0.3,0.438-0.327,0.546-0.585c0.123-0.292,0.2-0.404,0.541-0.298   c0.68,0.207,1.6,0.289,1.33,1.176c0.229-0.181,0.429-0.405,0.753-0.363c0.326,0.042,0.836,0.287,1.165,0.173   c0.925-0.321,1.478,1.223,2.454,1.013c0.789-0.169,0.583,1.709,0.318,2.088c-0.288,0.409-0.692,0.726-0.974,1.142   c-0.17,0.249-0.269,0.796-0.567,0.587c-0.149-0.102-0.16,1.336-0.136,1.447c0.085,0.396-0.129,0.927-0.323,1.244   c-0.229,0.37-0.035,0.836-0.446,1.205c-0.206,0.187-0.071,0.556-0.323,0.646c-0.147,0.052-0.27,0.338-0.341,0.344   c-0.493,0.059-0.886,0.044-1.311,0.271c-0.458,0.249-0.928,0.447-1.363,0.906c-0.393,0.419-0.007,0.874-0.182,1.335   c-0.032,0.083-0.842,1.023-0.703,1.106c-0.084-0.056,0.04-0.152,0.003-0.217c-0.124-0.229-0.366,0.292-0.388,0.334   c-0.07,0.074-0.143,0.151-0.212,0.227c0.005,0.098,0.004,0.199-0.006,0.299c0.023-0.047-0.789,0.394-0.471,0.483   c0.072,0.022,0.08-0.321,0.239-0.209c0.149,0.106-0.378,0.678-0.482,0.731c-0.282,0.149-1.659-0.194-1.675-0.172   c-0.142,0.235,0.466,0.308,0.565,0.446c-0.003,0.11,0.003,0.222,0.033,0.331c0.071,0.07,0.405,0.101,0.309,0.284   c-0.458,0.874-1.026,0.734-1.911,0.837c0.05,0.231,0.125,0.451,0.231,0.662c0.17,0.345-0.932,0.058-0.961,0.07   c-0.085,0.025,0.474,0.797,0.36,0.911c-0.223,0.22,0.236,0.402-0.156,0.611c-0.419,0.225-0.259,0.5,0.125,0.665   c0.213,0.089,0.655,0.156,0.313,0.455c-0.229,0.2-0.188,0.435-0.376,0.676c-0.069,0.09,0.542,0.66,0.623,0.728   c0.177,0.152,0.391,0.271,0.607,0.347c0.103,0.036,0.464,0.041,0.527,0.114c0.001,0.005-0.739,0.241-0.868,0.219   c-0.001-0.002-0.005-0.002-0.009-0.003c0.001,0.001,0.004,0.003,0.008,0.003c-0.007-0.002-0.007-0.002-0.012-0.003   c0,0-0.001,0-0.003,0c0.002,0,0.002,0,0.002,0c-0.002,0-0.002,0-0.007,0c-1.224-0.264-2.358-0.832-3.069-1.902   c-0.198-0.295-0.023-0.178,0.035-0.436c0.079-0.377-0.477-0.063-0.45-0.325c0.022-0.248-0.235-0.691-0.122-0.855   c0.093-0.128,0.213,0.154,0.262,0.161c0.188,0.034-0.577-1.622-0.342-0.692c0.072,0.287-0.161,0.428-0.168,0.214   c-0.021-0.299-0.167-0.528-0.276-0.79c-0.132-0.313-0.061-0.503-0.234-0.81c-0.27-0.476-0.225-0.515-0.215-1.041   c0.008-0.479,0.051-0.959-0.081-1.427c-0.07-0.234-0.189-0.424-0.302-0.636c-0.079-0.157,0.067-0.384-0.01-0.485   c-0.242-0.334-0.152-0.745-0.173-1.128c-0.027-0.536-0.156-1.05-0.238-1.58c-0.119-0.774-0.234-1.604-0.469-2.423   c-0.039-0.138-0.615-0.529-0.758-0.621c-0.476-0.307-1.033-0.471-1.487-0.817c-0.204-0.159-0.391-0.344-0.558-0.546   c-0.128-0.158-0.037-0.358-0.151-0.54c-0.276-0.45-0.609-0.859-0.868-1.328c-0.437-0.787-0.769-1.512-1.468-2.072   c0.067,0.051-0.101-0.515-0.097-0.501c-0.136-0.58,0.194-0.547,0.413-1.004c0.103-0.222-0.516-0.222-0.36-0.557   c0.035-0.08-0.037-0.396-0.021-0.462c0.048-0.212,0.17-0.393,0.246-0.596c0.048-0.146-0.066-0.273,0.086-0.388   c0.095-0.07,0.305-0.09,0.354-0.212c0.122-0.304,0.051-0.504,0.361-0.68c0.842-0.48-0.085-3.413-0.514-3.182   c-0.477,0.259-0.17,1.195-0.641,0.673c-0.215-0.239-0.77-0.255-0.97-0.418c0.006,0.002-0.3-0.895-0.464-0.756   c-0.006,0.005,0.048,0.262-0.063,0.168c-0.255-0.215-0.182-0.498-0.177-0.82c0.046,0.02,0.546,0.326,0.356-0.042   c-0.299-0.575-0.212-0.112-0.352,0.045c-0.005-0.005-0.005-0.006-0.005-0.003c-0.234-0.092-0.561-0.954-0.572-0.943   c-0.363,0.343-1.37-0.598-1.503-0.885c-0.443-0.961-0.842-0.003-1.503-0.583c-0.455-0.4-1.385-1.11-1.282-1.826   c0.064-0.411,0.286-0.729,0.292-1.166c0.008-0.434,0.048-1.003-0.109-1.41c-0.087-0.222,0.091-0.688,0.093-0.954   c0.002-0.534,0.125-1.063,0.344-1.549c0.077-0.17,0-0.438-0.152-0.192c-0.25,0.414-0.323,0.962-0.422,1.428   c-0.052,0.242-0.354,2.411-0.476,2.395c0.003,0-0.039-0.775-0.037-0.815c0.031-0.438,0.158-0.678,0.114-1.131   c-0.032-0.315,0.34-0.492,0.34-0.841c-0.005-0.402,0.193-0.763,0.326-1.135c0.156-0.436,0.389-0.852,0.384-1.327   c-0.003-0.409,0.422-0.857,0.612-1.2c0.486-0.859,1.068-1.627,1.722-2.367c1.107-1.255,2.273-2.588,3.577-3.644   c0.128-0.101,0.249-0.207,0.379-0.307c-0.095,0.074-0.191,0.148-0.281,0.222c-0.034,0.025-0.066,0.058-0.098,0.085   c-6.915,5.43-11.271,13.929-11.027,23.386c0.361,14.039,10.709,25.466,24.07,27.67c-0.704-0.117-1.399-0.264-2.09-0.436   c0.112-0.001,1.102,0.209,1.119,0.127c0.01-0.048-0.912-0.272-1.057-0.369c0.765-0.039,1.669,0.085,2.425,0.217   c0.005,0.002,0.715-0.201,0.886-0.151c-0.188-0.112-1.014-0.294-1.017-0.381c-0.005-0.104,0.925-0.24,0.952-0.054   c-0.035-0.224,0.12-0.193-0.206-0.338c0,0-0.271-0.02-0.268-0.082c-0.004,0.076,0.469-0.371,0.586-0.488   c0.005-0.005,0.008-0.018,0.03-0.027c0.361,0.1,0.913-0.404,1.369-0.317c-0.045,0.025-0.532,0.21-0.445,0.244   c-0.152-0.062-0.411,0.105-0.401,0.268c0,0.017,0.464,0.592,0.508,0.643c0.16,0.185,0.384,0.302,0.578,0.442   c0.159,0.108,0.177,0.343,0.381,0.374c0.308,0.046,0.615,0.092,0.925,0.132c1.475,0.181,2.803-0.029,4.22-0.458   c0.676-0.199,1.353-0.334,2.043-0.49c0.596-0.137,1.292-0.064,1.823-0.387c0.194-0.119,0.109,0.109,0.297,0.103   c0.266-0.011,0.528-0.02,0.794-0.047c0.548-0.063,1.164-0.027,1.684-0.183c-0.278,0.082,0.083-0.022,0,0   c0.125-0.092,0.212-0.095,0.265-0.012c-0.678,0.273-1.367,0.521-2.063,0.742C128.428,147.489,136.97,136.175,136.634,123.02z    M95.954,132.809c-0.112-0.124-0.288-0.315-0.438-0.393c-0.136-0.07-0.157,0.199-0.114,0.239   C95.496,132.754,96.204,133.081,95.954,132.809C96.047,132.914,95.84,132.683,95.954,132.809z M100.562,147.31   c-0.247-0.085-0.086,0.201-0.077,0.225c0.087,0.253,0.09,0.013,0.233,0.129c0.018,0.015,0.041,0.032,0.061,0.052   c0.007-0.046,0.124-0.181,0.076-0.203c-0.076,0.012-0.154,0.013-0.234,0.004C100.482,147.456,100.655,147.342,100.562,147.31z    M100.342,122.913c0.013,0.122,0.196-0.396,0.26-0.481C100.426,122.534,100.32,122.708,100.342,122.913   C100.345,122.937,100.318,122.698,100.342,122.913z M104.496,127.024c0.075,0.194-0.003-0.32-0.099-0.458   C104.295,126.801,104.42,126.826,104.496,127.024z M107.857,130.063c-0.035-0.02-0.019-0.012,0.002,0.001   C107.859,130.064,107.859,130.064,107.857,130.063c0.002,0.001,0.002,0,0.005,0.001l0,0c0.029,0.015,0.059,0.032,0.002,0   c0.142,0.071,0.162-0.199,0.196-0.272c0.082-0.169,0.128,0.078,0.192,0.025c0.039-0.035-0.07-0.283,0.109-0.239   c-0.152-0.034-0.024-0.184,0.077-0.188c0.347-0.006,0.326-0.186,0.398-0.382c-0.09-0.003-0.119,0.257-0.286,0.27   c-0.154,0.013-0.473,0.238-0.561,0.209C108.195,129.668,107.663,129.955,107.857,130.063z M101.146,101.044   c-0.001-0.154-0.581-0.003-0.653,0.176C100.591,101.116,101.15,101.136,101.146,101.044z M102.359,101.051   c-0.067-0.015-0.463,0.063-0.453,0.183C101.913,101.322,102.327,101.071,102.359,101.051z M98.757,98.062   c-0.052-0.045-0.328,0.119-0.302,0.159C98.501,98.283,98.707,98.093,98.757,98.062z M101.449,97.856   c-0.002,0.061,0.271,0.032,0.287-0.052c-0.022-0.061-0.067-0.091-0.133-0.091C101.518,97.724,101.468,97.772,101.449,97.856z    M119.19,98.855c0.018,0.045,0.175,0.26,0.24,0.149c0.102-0.164-0.272-0.243-0.242-0.153   C119.216,98.921,119.199,98.874,119.19,98.855z M119.959,100.676c0.05,0.048,0.129,0.158,0.129,0.1   C120.091,100.75,120.009,100.699,119.959,100.676z M126.898,120.247c0.024,0.109,0.106,0.177,0.244,0.209   c0.027-0.103,0.039-0.204,0.034-0.309c0.063-0.006-0.052-0.623-0.203-0.369C126.901,119.901,127.369,120.267,126.898,120.247z    M104.496,127.024C104.507,127.052,104.446,126.894,104.496,127.024L104.496,127.024z M117.081,100.326   c-0.063-0.17-0.284-0.201-0.438-0.198c-0.434,0.005-0.172,0.088-0.199,0.291c-0.01,0.066-0.229-0.003-0.271,0.035   c0.022-0.022,0.588,0.838,0.737,0.833c0.889-0.084,0.344-0.53,0.179-0.946C117.108,100.394,117.123,100.442,117.081,100.326z    M117.081,100.326c0.005,0.003,0.007,0.01,0.007,0.015C117.068,100.286,117.046,100.227,117.081,100.326z M118.855,101.46   c0.174-0.022,0.569-0.005,0.702-0.125c0.159-0.142-0.118-0.134-0.15-0.189c-0.09-0.151-0.013-0.331-0.226-0.411   c-0.394-0.149-0.138,0.1-0.507-0.191c-0.258-0.201-0.961-0.684-1.289-0.673c-0.2,0.005-0.157-0.283-0.245-0.402   c-0.095-0.125-0.321-0.037-0.45-0.042c0.199,0.006-0.575-0.447-0.456-0.183c0.063,0.135-0.107,0.318,0.134,0.356   c0.005,0,0.337,0.333,0.339,0.344c0.03,0.096,1.771,0.668,1.017,0.726c0.064,0.087,0.145,0.148,0.241,0.189   c0.131,0.1-0.113,0.251-0.044,0.292c0.307,0.191,0.496-0.051,0.336,0.47C118.214,101.756,118.79,101.447,118.855,101.46   C118.74,101.438,119.046,101.435,118.855,101.46z M103.643,102.812c-0.016,0.133,0.144,0.277,0.068,0.422   c-0.127,0.241-0.524,0.193-0.433,0.007c0.08-0.161-0.601,0.17-0.615,0.133c-0.027-0.065,0.177-0.053,0.164-0.143   c-0.013-0.116-1.746-0.024-1.039-0.286c0.011-0.007,1.119-1.436,1.284-1.134c0.054,0.093-0.523,0.466-0.446,0.546   c0.03,0.035,0.166-0.105,0.241-0.048c0.037,0.028,0.085,0.366,0.26,0.209c0.076-0.064,0.524-0.069,0.381,0.12   C103.394,102.785,103.651,102.752,103.643,102.812z M103.543,102.929c-0.033-0.024-0.178,0.103-0.113,0.15   c-0.059-0.045,0.058,0.042,0,0C103.487,103.123,103.584,102.956,103.543,102.929z M103.642,103.033   C103.684,103.105,103.679,102.994,103.642,103.033L103.642,103.033z M100.299,96.238c-0.013,0.001-0.029,0.001-0.069,0.006   c0.201-0.018,0.262-0.056,0.255-0.262c-0.228,0.135-0.496,0.154-0.705,0.334c0.148-0.04,0.294-0.064,0.447-0.071   C100.239,96.243,100.276,96.24,100.299,96.238z M112.309,95.588c0.172,0.029-0.07-0.097-0.032-0.122   c-0.316,0.143-0.78-0.21-1.146-0.104C111.517,95.475,111.91,95.52,112.309,95.588C111.92,95.52,112.33,95.593,112.309,95.588z    M99.378,96.566C99.125,96.527,99.458,96.581,99.378,96.566L99.378,96.566z M111.032,95.373c0.035,0.016,0.067,0.013,0.098-0.011   C111.063,95.314,111.028,95.318,111.032,95.373z M103.476,146.94c0.002,0,0.002,0,0.004,0c-0.002,0-0.004,0.003-0.004,0.003   c-0.048,0.045-0.063,0.093-0.022,0.142c0.069,0.085,0.488-0.135,0.431-0.203C103.799,146.791,103.575,146.849,103.476,146.94z    M99.477,96.818C99.492,96.825,99.766,96.812,99.477,96.818L99.477,96.818z M104.729,139.458c0.039,0.035,0.206-0.135,0.142-0.18   C104.827,139.246,104.684,139.41,104.729,139.458z M99.477,96.818c0.212-0.007,0.572-0.146,0.697-0.325   C100.024,96.449,99.367,96.776,99.477,96.818z M100.207,96.628c-0.043-0.008-0.074,0.003-0.088,0.045   C100.156,96.675,100.199,96.685,100.207,96.628z" fill="#5E889E" fill-rule="evenodd"/><path d="M192.435,83.308L84.692,28.378c-6.803-3.47-15.204-0.742-18.67,6.059L58.42,49.354L48.381,69.042h48.651   L62.834,51.608l7.606-14.919c2.234-4.383,7.618-6.133,12.002-3.897l107.741,54.932c4.385,2.236,6.134,7.62,3.896,12.002   l-7.604,14.916l-32.823-16.734v42.524l15.616,7.961l-7.606,14.917c-1.924,3.778-6.188,5.59-10.134,4.593   c-0.802,1.545-1.816,2.962-3.002,4.221c6.579,2.652,14.271-0.128,17.55-6.563l7.605-14.915l17.207-33.751l7.607-14.918   C201.961,95.176,199.233,86.776,192.435,83.308z" fill="#5E889E"/></g></svg>